<svg width="500" height="603" viewBox="0 0 500 603" fill="none" xmlns="http://www.w3.org/2000/svg">
<g clip-path="url(#clip0_70_27)">
<path d="M0 348.346V304.773C59.5935 355.117 140.858 379.272 245.824 379.272C350.563 379.272 431.827 355.117 491.646 304.773V348.346C430.248 394.851 349.435 416.975 245.824 416.975C142.212 416.975 61.1736 394.851 0 348.346ZM0 472.513C0 546.785 99.7742 602.549 245.824 602.549C391.872 602.549 491.646 546.785 491.646 472.513V117.62C491.646 48.7639 393.227 0 245.824 0C98.4196 0 0 48.7639 0 117.62V472.513ZM39.9549 117.62C39.9549 69.9849 122.347 35.4439 245.824 35.4439C369.3 35.4439 451.465 69.9849 451.465 117.62C451.465 163.9 367.719 197.538 245.824 197.538C123.702 197.538 39.9549 163.9 39.9549 117.62Z" fill="black" fill-opacity="0.85"/>
</g>
<defs>
<clipPath id="clip0_70_27">
<rect width="500" height="603" fill="white"/>
</clipPath>
</defs>
</svg>
